# xmcd CD database file
#
# Track frame offsets:
#	150
#	13281
#	25813
#	40451
#	76751
#	89935
#	101166
#	121737
#	132763
#	153315
#	168054
#	190152
#	205544
#	221963
#	234602
#	244374
#	255203
#	275422
#
# Disc length: 4074 seconds
#
# Revision: 0
# Processed by: cddbd v1.5.2PL0 Copyright (c) Steve Scherf et al.
# Submitted via: CD2WAV32(JP) R3.22
#
DISCID=f40fe812
DTITLE=あがた森魚 - 永遠の遠国（二柔世紀完結篇） Disc2
DYEAR=1999
DGENRE=Vocal
TTITLE0=Part1　お伽劇の映画で観たようにラジオから
TTITLE1=Part2　ただ折ふし夢の中でのみ伺い得るもの
TTITLE2=Part3　麓のステーションからアプト式の汽車に乗って
TTITLE3=Part4　メロ僧正のお伽の広間の懸幕に似た星空
TTITLE4=Part5　広島市民球場のくずれた溶鉱が
TTITLE5=Part6　そしてまた遠国の諸侯の領地に
TTITLE6=水晶になりたい
TTITLE7=「スターカッスル星の夜の爆発」（ダブ・バージョン）
TTITLE8=象ねずみの校庭
TTITLE9=ニジンスキー　ササン朝ペルシアに踊る
TTITLE10=海と百合のアリア
TTITLE11=沙莫典　ボリボリのタンゴ
TTITLE12=ありがとう
TTITLE13=むらさきの山
TTITLE14=私のキリギリス
TTITLE15=「スターカッスル星の夜の爆発」（Extra)
TTITLE16=ペリカンの一休み（ラ・マラゲーニア）
TTITLE17=春昼後刻（総天然色）
EXTD=
EXTT0=
EXTT1=
EXTT2=
EXTT3=
EXTT4=
EXTT5=
EXTT6=
EXTT7=
EXTT8=
EXTT9=
EXTT10=
EXTT11=
EXTT12=
EXTT13=
EXTT14=
EXTT15=
EXTT16=
EXTT17=
PLAYORDER=
